<svg width="256" height="256" viewBox="0 0 256 256" fill="none" xmlns="http://www.w3.org/2000/svg">
  <rect width="256" height="256" rx="56" fill="#0F766E"/>
  <path d="M76 188C76 145.98 108.98 113 151 113H180V76C180 71.58 183.58 68 188 68H194C198.42 68 202 71.58 202 76V188C202 192.42 198.42 196 194 196H188C183.58 196 180 192.42 180 188V151H151C108.98 151 76 118.02 76 76V68H70C65.58 68 62 71.58 62 76V82C62 125.02 94.98 158 137 158H180V188C180 192.42 176.42 196 172 196H166C161.58 196 158 192.42 158 188V158H76V188Z" fill="white"/>
  <circle cx="96" cy="96" r="18" fill="#FDE68A"/>
</svg>